<svg aria-hidden="true" style="position: absolute; width: 0; height: 0; overflow: hidden;" version="1.1" xmlns="http://www.w3.org/2000/svg" xmlns:xlink="http://www.w3.org/1999/xlink">
<defs>
<symbol id="icon-Add" viewBox="0 0 37 32">
<path fill="#9e637c" style="fill: var(--color1, #9e637c)" opacity="0.5" d="M19.556-3.556c-0.001 0-0.002 0-0.003 0-9.818 0-17.778 7.959-17.778 17.778 0 4.284 1.516 8.215 4.040 11.284l-0.025-0.031-3.492 3.49c-0.322 0.322-0.52 0.766-0.52 1.257 0 0.982 0.796 1.778 1.777 1.778h16c9.818 0 17.778-7.959 17.778-17.778s-7.959-17.778-17.778-17.778v0zM24.889 16h-3.556v3.556c0 0.982-0.796 1.778-1.778 1.778s-1.778-0.796-1.778-1.778v0-3.556h-3.556c-0.982 0-1.778-0.796-1.778-1.778s0.796-1.778 1.778-1.778v0h3.556v-3.556c0-0.982 0.796-1.778 1.778-1.778s1.778 0.796 1.778 1.778v0 3.556h3.556c0.982 0 1.778 0.796 1.778 1.778s-0.796 1.778-1.778 1.778v0z"></path>
</symbol>
<symbol id="icon-coment" viewBox="0 0 32 32">
<path fill="#fff" style="fill: var(--color2, #fff)" opacity="0.5" d="M27.2 0h-22.4c-2.65 0.003-4.797 2.15-4.8 4.8v16c0.003 2.65 2.15 4.797 4.8 4.8h18.538l5.931 5.931c0.29 0.289 0.689 0.468 1.131 0.468 0.884 0 1.6-0.716 1.6-1.6v-25.6c-0.003-2.65-2.15-4.797-4.8-4.8h-0zM9.6 14.4c-0.884 0-1.6-0.716-1.6-1.6s0.716-1.6 1.6-1.6v0c0.884 0 1.6 0.716 1.6 1.6s-0.716 1.6-1.6 1.6v0zM16 14.4c-0.011 0-0.023 0-0.036 0-0.884 0-1.6-0.716-1.6-1.6s0.716-1.6 1.6-1.6c0.013 0 0.025 0 0.038 0l-0.002-0c0.884 0 1.6 0.716 1.6 1.6s-0.716 1.6-1.6 1.6v0zM22.4 14.4c-0.884 0-1.6-0.716-1.6-1.6s0.716-1.6 1.6-1.6v0c0.884 0 1.6 0.716 1.6 1.6s-0.716 1.6-1.6 1.6v0z"></path>
</symbol>
<symbol id="icon-Vector" viewBox="0 0 32 32">
<path fill="#8236cb" style="fill: var(--color3, #8236cb)" opacity="0.5" d="M16 0.313c-8.663 0-15.687 7.023-15.687 15.687s7.023 15.687 15.687 15.687c8.663 0 15.687-7.023 15.687-15.687v0c-0.010-8.66-7.027-15.677-15.686-15.687h-0.001zM24.168 12.256l-9.706 9.706c-0.284 0.284-0.676 0.46-1.109 0.46s-0.825-0.176-1.109-0.46l-4.41-4.412c-0.265-0.28-0.428-0.66-0.428-1.077 0-0.867 0.702-1.569 1.569-1.569 0.417 0 0.796 0.163 1.077 0.428l-0.001-0.001 3.303 3.304 8.598-8.596c0.279-0.257 0.652-0.415 1.063-0.415 0.866 0 1.569 0.702 1.569 1.569 0 0.41-0.158 0.784-0.416 1.064l0.001-0.001z"></path>
</symbol>
<symbol id="icon-hello" viewBox="0 0 32 32">
<path d="M0 0h32v32h-32z"></path>
</symbol>
</defs>
</svg>
